<svg width="641" height="139" viewBox="0 0 641 139" fill="none" xmlns="http://www.w3.org/2000/svg">
<g clip-path="url(#clip0_1_30)">
<path d="M272.11 98.26H306.82V111.66H258.1V26.4H272.11V98.26Z" fill="#FBFFF8"/>
<path d="M328.81 39.13C327.14 40.8 325.18 41.63 322.9 41.63C320.62 41.63 318.66 40.8 316.99 39.13C315.32 37.47 314.49 35.5 314.49 33.22C314.49 30.94 315.3 28.98 316.93 27.31C318.55 25.65 320.54 24.81 322.9 24.81C325.26 24.81 327.24 25.64 328.87 27.31C330.49 28.98 331.31 30.94 331.31 33.22C331.31 35.5 330.48 37.46 328.81 39.13ZM316.33 111.66V50.76H329.48V111.66H316.33Z" fill="#FBFFF8"/>
<path d="M341.16 111.66V22.75H354.31V111.66H341.16Z" fill="#FBFFF8"/>
<path d="M409.4 50.76H423.41L400.02 113.61C394.17 129.36 384.27 136.83 370.3 136.02V123.72C374.44 123.96 377.77 123.09 380.29 121.1C382.81 119.11 384.88 116 386.5 111.78L387.11 110.56L361.29 50.76H375.66L393.82 94.97L409.4 50.76Z" fill="#FBFFF8"/>
<path d="M466.16 49.18C474.52 49.18 481.67 52.29 487.6 58.5C493.53 64.71 496.49 72.28 496.49 81.22C496.49 90.16 493.52 97.83 487.6 104C481.67 110.17 474.53 113.26 466.16 113.26C456.9 113.26 449.8 109.85 444.85 103.03V136.04H431.7V50.76H444.85V59.53C449.8 52.63 456.91 49.18 466.16 49.18ZM450.33 95.16C453.98 98.86 458.57 100.7 464.09 100.7C469.61 100.7 474.2 98.85 477.85 95.16C481.5 91.47 483.33 86.82 483.33 81.21C483.33 75.6 481.5 70.96 477.85 67.26C474.2 63.57 469.61 61.72 464.09 61.72C458.57 61.72 453.98 63.57 450.33 67.26C446.68 70.96 444.85 75.6 444.85 81.21C444.85 86.82 446.68 91.46 450.33 95.16Z" fill="#FBFFF8"/>
<path d="M555.47 49.18H568.62V110.08H555.47V101.31C550.52 108.21 543.41 111.66 534.15 111.66C525.79 111.66 518.64 108.55 512.71 102.34C506.78 96.13 503.82 88.56 503.82 79.62C503.82 70.68 506.78 63.02 512.71 56.84C518.64 50.67 525.78 47.58 534.15 47.58C543.41 47.58 550.51 50.99 555.47 57.81V49.16V49.18ZM522.46 93.58C526.11 97.28 530.7 99.12 536.22 99.12C541.74 99.12 546.33 97.27 549.98 93.58C553.63 89.89 555.46 85.24 555.46 79.63C555.46 74.02 553.63 69.38 549.98 65.68C546.33 61.99 541.74 60.14 536.22 60.14C530.7 60.14 526.11 61.99 522.46 65.68C518.81 69.38 516.98 74.02 516.98 79.63C516.98 85.24 518.81 89.88 522.46 93.58Z" fill="#FBFFF8"/>
<path d="M627.48 24.82H640.63V110.08H627.48V101.31C622.53 108.21 615.42 111.66 606.16 111.66C597.8 111.66 590.65 108.55 584.72 102.34C578.79 96.13 575.83 88.56 575.83 79.62C575.83 70.68 578.79 63.02 584.72 56.84C590.65 50.67 597.79 47.58 606.16 47.58C615.42 47.58 622.52 50.99 627.48 57.81V24.82ZM594.47 93.57C598.12 97.27 602.71 99.11 608.23 99.11C613.75 99.11 618.34 97.26 621.99 93.57C625.64 89.88 627.47 85.23 627.47 79.62C627.47 74.01 625.64 69.37 621.99 65.67C618.34 61.98 613.75 60.13 608.23 60.13C602.71 60.13 598.12 61.98 594.47 65.67C590.82 69.37 588.99 74.01 588.99 79.62C588.99 85.23 590.82 89.87 594.47 93.57Z" fill="#FBFFF8"/>
<path d="M222.09 95.93C222.09 119.2 203.23 138.06 179.96 138.06H84.1699C107.32 129.27 123.07 115.99 131.17 98.37C142.47 73.8 136.36 46.44 129.39 28.04C137.39 26 145.95 26.9 153.45 30.7C162.85 35.47 169.54 44.29 171.61 54.62C174.35 54.07 177.15 53.79 179.95 53.79C203.22 53.79 222.08 72.65 222.08 95.93H222.09Z" fill="#FBFFF8"/>
<path d="M121.83 29.22C128.52 46.43 134.89 72.64 124.45 95.31C117.87 109.6 105.48 120.77 87.42 128.76C73.24 135.03 57.83 138.06 42.32 138.06H38.21C17.33 138.03 0.309961 121.25 -3.88338e-05 100.35C-0.140039 90.83 3.19996 82.07 8.85996 75.28C17.35 65.09 31.85 62.31 43.68 68.3C47.82 70.39 50.53 71.92 50.61 71.97C52.04 72.78 53.77 72.5 54.87 71.4C55.09 71.18 55.27 70.94 55.43 70.66C56.44 68.96 55.82 66.76 54.09 65.79C36.9 56.18 31.83 33.46 43.82 17.84C48.97 11.13 56.02 5.77 64.56 2.67C65.04 2.49 65.54 2.32 66.04 2.16C88.74 -5.23 113.17 6.97 121.83 29.22Z" fill="#A9D18B"/>
</g>
<defs>
<clipPath id="clip0_1_30">
<rect width="640.64" height="138.07" fill="white"/>
</clipPath>
</defs>
</svg>
