<svg width="343" height="59" viewBox="0 0 343 59" fill="none" xmlns="http://www.w3.org/2000/svg" class="h-12 w-auto sm:h-[63px] sm:w-[273px]" style="height: 24px;padding-right: 1rem;">
<title>Play Hosting</title>
<path d="M77.6443 57.2004V22.8802H83.984V26.8842C85.3187 24.1672 87.559 22.3558 91.8967 22.3558C98.7131 22.3558 104.147 28.2189 104.147 35.3689C104.147 42.519 98.7131 48.2867 91.8967 48.2867C87.6544 48.2867 85.414 46.5707 84.0793 43.9966V57.2004H77.6443ZM83.8887 35.3689C83.8887 39.2299 86.6057 42.4713 90.848 42.4713C94.9474 42.4713 97.7121 39.0869 97.7121 35.3212C97.7121 31.4602 94.9474 28.1712 90.848 28.1712C86.6057 28.1712 83.8887 31.5079 83.8887 35.3689ZM107.017 47.667V12.8701H113.452V47.667H107.017ZM128.555 48.2867C121.739 48.2867 116.305 42.519 116.305 35.3689C116.305 28.2189 121.739 22.3558 128.555 22.3558C132.845 22.3558 135.086 24.1195 136.42 26.7889V22.8802H142.808V47.667H136.563V43.6153C135.229 46.4277 132.988 48.2867 128.555 48.2867ZM122.74 35.3212C122.74 39.0869 125.505 42.4713 129.604 42.4713C133.846 42.4713 136.563 39.2299 136.563 35.3689C136.563 31.5079 133.846 28.1712 129.604 28.1712C125.505 28.1712 122.74 31.4602 122.74 35.3212ZM149.157 57.6294C147.87 57.6294 146.154 57.5341 144.867 57.1527L145.821 51.0037C146.774 51.242 147.68 51.3374 148.728 51.3374C151.207 51.3374 152.78 49.7643 153.495 47.5717L153.829 46.523L144.009 22.8802H151.779L156.594 37.0373C157.023 38.2289 157.404 39.7066 157.642 40.9936C157.881 39.7066 158.262 38.2289 158.691 37.0373L163.505 22.8802H171.132L160.169 49.24C158.071 54.245 154.973 57.6294 149.157 57.6294ZM187.967 47.667V12.8701H194.402V26.3122C195.737 23.6428 198.168 22.3082 201.886 22.3082C207.225 22.3082 211.324 26.2645 211.324 32.5089V47.667H204.889V34.0819C204.889 29.7919 202.744 27.9329 199.551 27.9329C196.833 27.9329 194.402 29.7919 194.402 34.0819V47.667H187.967ZM227.17 48.2867C219.495 48.2867 213.966 42.4713 213.966 35.3212C213.966 28.1712 219.495 22.3082 227.17 22.3082C234.844 22.3082 240.374 28.1712 240.374 35.3212C240.374 42.4713 234.844 48.2867 227.17 48.2867ZM220.401 35.3212C220.401 39.1823 223.07 42.4236 227.17 42.4236C231.269 42.4236 233.939 39.1823 233.939 35.3212C233.939 31.4602 231.269 28.1712 227.17 28.1712C223.07 28.1712 220.401 31.4602 220.401 35.3212ZM251.195 48.2867C247 48.2867 243.615 46.8567 240.898 43.949L245.236 39.9926C247.047 42.0423 248.954 43.0433 251.052 43.0433C253.244 43.0433 254.484 41.947 254.484 40.4693C254.484 39.1823 253.864 38.4673 249.955 37.5616C243.329 35.9886 242.328 32.9856 242.328 29.8395C242.328 25.5018 245.76 22.2605 251.576 22.2605C255.58 22.2605 258.249 23.2615 260.776 26.5505L256.104 30.1255C254.913 28.2189 253.387 27.4562 251.719 27.4562C249.955 27.4562 248.621 28.1235 248.621 29.6489C248.621 30.5069 249.002 31.2695 251.957 32.0322C259.155 33.8912 260.823 36.5606 260.823 40.2786C260.823 44.8546 256.676 48.2867 251.195 48.2867ZM272.303 47.667C267.393 47.667 264.724 45.379 264.724 39.9926V28.3619H261.244V22.8802H264.724V17.8751L271.159 17.2078V22.8802H276.402V28.3619H271.159V39.6589C271.159 41.2319 271.922 41.947 273.161 41.947H275.83V47.667H272.303ZM278.553 47.667V22.8802H284.988V47.667H278.553ZM277.886 17.0171C277.886 14.9674 279.554 13.2514 281.747 13.2514C283.987 13.2514 285.608 14.9674 285.608 17.0171C285.608 19.1621 283.987 20.8305 281.747 20.8305C279.554 20.8305 277.886 19.1145 277.886 17.0171ZM288.794 47.667V22.8802H295.134V26.5028C296.421 23.7382 298.9 22.3082 302.713 22.3082C308.052 22.3082 312.151 26.2645 312.151 32.5089V47.667H305.716V34.0819C305.716 29.7919 303.571 27.9329 300.377 27.9329C297.66 27.9329 295.229 29.7919 295.229 34.0819V47.667H288.794ZM327.807 57.8201C322.801 57.8201 318.893 56.6284 315.937 53.1487L319.941 48.4297C322.277 51.099 324.756 51.8617 327.854 51.8617C331.286 51.8617 334.289 49.0493 334.289 45.093V43.9966C332.955 46.2847 330.81 47.81 326.805 47.81C319.989 47.81 314.793 42.1853 314.793 35.0352C314.793 27.8852 319.989 22.2605 326.805 22.2605C330.905 22.2605 333.098 23.8335 334.385 26.2645V22.8802H340.724V45.4743C340.724 53.101 335.386 57.8201 327.807 57.8201ZM321.228 35.0352C321.228 38.8009 323.659 41.947 327.854 41.947C332.097 41.947 334.575 38.8963 334.575 35.0352C334.575 31.1742 332.097 28.1235 327.854 28.1235C323.659 28.1235 321.228 31.1742 321.228 35.0352Z" fill="white"/>
<mask id="mask0_3013_20" style="mask-type:luminance" maskUnits="userSpaceOnUse" x="2" y="16" width="63" height="36">
 <path d="M59.1909 16.9482L2.91309 30.9798L8.08636 51.7287L64.3642 37.697L59.1909 16.9482Z" fill="white"/>
</mask>
<g mask="url(#mask0_3013_20)">
 <path d="M47.9319 31.2483C44.645 32.0679 50.6465 33.1364 47.9319 31.2483C44.9809 29.4174 46.9759 22.4872 41.5763 23.8335C36.1767 25.1798 32.4362 29.6724 30.6917 32.6723C29.121 35.3729 27.9588 37.7157 24.6718 38.5353C21.3849 39.3548 19.3186 38.0729 16.6039 36.1848C13.6529 34.3538 10.0862 33.7199 4.6866 35.0662C-0.712982 36.4124 -2.78127 38.4531 -4.52574 41.453C-6.09641 44.1536 -7.25874 46.4964 -10.5457 47.3159C-13.8326 48.1355 -15.8988 46.8536 -18.6135 44.9655C-21.5646 43.1345 -25.164 40.6973 -30.5637 42.0436C-35.9632 43.3899 -37.9987 47.2337 -39.7432 50.2337C-41.3138 52.9343 -42.4762 55.2773 -45.7632 56.0966C-49.0501 56.916 -51.1163 55.6343 -53.8308 53.7461C-56.7819 51.9152 -60.3813 49.478 -65.7809 50.8243C-71.1805 52.1706 -73.2159 56.0145 -74.9605 59.0144C-76.5314 61.715 -77.6934 64.0581 -80.9809 64.8774C-84.2673 65.6968 -86.3339 64.415 -89.0483 62.5269C-91.9994 60.696 -95.5988 58.2586 -100.998 59.6049C-106.398 60.9512 -108.433 64.7953 -110.178 67.7952C-111.749 70.4958 -112.911 72.8383 -116.198 73.6582C-119.485 74.4776 -121.551 73.1958 -124.266 71.3077C-127.217 69.4767 -130.816 67.0394 -136.216 68.3857C-137.625 68.7369 -138.324 69.937 -137.962 71.3877C-137.601 72.8373 -136.421 73.5703 -135.011 73.2186C-131.724 72.3993 -129.658 73.681 -126.943 75.5691C-123.992 77.4001 -120.392 79.8374 -114.993 78.4911C-109.593 77.1448 -107.558 73.3007 -105.813 70.3009C-104.243 67.6003 -103.08 65.2577 -99.7935 64.4378C-96.5065 63.6185 -94.4404 64.9002 -91.7255 66.7883C-88.7744 68.6193 -85.175 71.0566 -79.7754 69.7103C-74.3758 68.364 -72.3404 64.5204 -70.5958 61.5201C-69.0255 58.8195 -67.8629 56.4769 -64.576 55.6576C-61.2891 54.8377 -59.223 56.1199 -56.5081 58.0081C-53.557 59.839 -49.9578 62.2759 -44.5582 60.9295C-39.1586 59.5832 -37.1231 55.7397 -35.3786 52.7396C-33.8079 50.039 -32.6457 47.6962 -29.3586 46.8767C-26.0717 46.0572 -24.0055 47.3391 -21.2908 49.2271C-18.3398 51.0581 -14.7403 53.4951 -9.34073 52.149C-3.94112 50.8027 -1.90564 46.9589 -0.161163 43.9589C1.4095 41.2583 2.57182 38.9155 5.85886 38.096C9.14571 37.2765 11.212 38.5583 13.9267 40.4464C16.8777 42.2774 20.4772 44.7146 25.8768 43.3683C31.2763 42.022 33.3118 38.1782 35.0563 35.1782C36.6269 32.4776 37.7893 30.1348 41.0763 29.3152C44.3632 28.4957 47.7372 32.7844 46.5331 27.9548C49.256 29.6594 42.5322 32.5946 47.9319 31.2483C49.3403 30.8972 48.2936 32.6993 47.9319 31.2483C49.1061 30.9556 47.5701 29.7974 47.9319 31.2483Z" fill="url(#paint0_linear_3013_20)"/>
 <path fill-rule="evenodd" clip-rule="evenodd" d="M16.8948 35.7421L16.9062 35.75C18.2689 36.6978 19.4103 37.4497 20.6018 37.8768C21.7696 38.2954 23.0011 38.4059 24.5435 38.0214C27.3992 37.3094 28.5057 35.3951 29.9591 32.8802C30.0492 32.7244 30.1405 32.5663 30.2337 32.4061C32.0095 29.3523 35.847 24.7161 41.448 23.3196C42.8947 22.9588 43.9703 23.1262 44.7607 23.7512C45.5157 24.3482 45.9023 25.2856 46.1789 26.1954C46.288 26.5544 46.3854 26.9296 46.4798 27.2967L46.814 27.5059C47.2242 27.7627 47.513 28.0789 47.6513 28.4604C47.7899 28.8427 47.7513 29.2186 47.6438 29.5439C47.5922 29.7003 47.5213 29.8538 47.4391 30.0016C47.4845 30.0736 47.5317 30.1425 47.5808 30.2082C47.728 30.0601 47.9204 29.9967 48.1045 30.0043C48.2894 30.0121 48.4447 30.0882 48.5553 30.1716C48.7363 30.3081 48.9239 30.5687 48.9116 30.8922C48.9269 30.9057 48.9418 30.9199 48.9564 30.9349C49.206 31.1915 49.2074 31.5096 49.1322 31.7472C49.159 31.8165 49.1785 31.892 49.1857 31.9729C49.2031 32.1693 49.143 32.3563 49.0185 32.5029C48.906 32.6355 48.765 32.7074 48.6531 32.748C48.5377 32.7898 48.4178 32.8111 48.3076 32.8215C48.0875 32.8422 47.8462 32.8246 47.6244 32.7851C47.4028 32.7457 47.1705 32.6789 46.9723 32.583C46.8733 32.5351 46.7678 32.4727 46.6742 32.3911C46.5976 32.3244 46.5086 32.2271 46.4504 32.095C46.2878 32.115 46.1396 32.1249 46.0094 32.1196C45.8811 32.1144 45.6932 32.0929 45.5276 31.9843C45.4346 31.9233 45.3472 31.8335 45.2913 31.7113C45.2363 31.5912 45.227 31.4732 45.2356 31.377C45.2511 31.204 45.3288 31.0595 45.3811 30.9731C45.4307 30.8912 45.4944 30.8039 45.5636 30.7162C45.4818 30.6931 45.401 30.6677 45.322 30.6416C45.1061 30.5699 44.8669 30.4791 44.6246 30.387C44.5427 30.3559 44.4605 30.3247 44.3787 30.294C44.0458 30.1692 43.7 30.0458 43.3428 29.9464C42.6252 29.7467 41.9 29.6557 41.2043 29.8291C38.3486 30.5412 37.2421 32.4555 35.7885 34.9705C35.6985 35.1262 35.6072 35.2843 35.514 35.4445C35.4422 35.5681 35.3696 35.6936 35.2961 35.8206C33.5966 38.7585 31.4126 42.5339 26.0048 43.8822C20.5976 45.2304 16.8992 42.924 14.0176 41.127C13.8927 41.0491 13.7693 40.9722 13.6473 40.8965L13.6355 40.8892L13.6241 40.8813C12.2614 39.9335 11.12 39.1815 9.9285 38.7544C8.76071 38.3359 7.52916 38.2253 5.98682 38.6099C3.1311 39.3219 2.02469 41.2362 0.571152 43.7511C0.481125 43.9069 0.389755 44.0649 0.296585 44.2252C0.224686 44.3488 0.1521 44.4743 0.0786133 44.6013C-1.62093 47.5392 -3.80487 51.3146 -9.21271 52.6629C-14.6199 54.0109 -18.3183 51.7047 -21.1998 49.9078C-21.3248 49.8298 -21.4482 49.7528 -21.5702 49.6772L-21.5819 49.6698L-21.5933 49.662C-22.9561 48.7142 -24.0974 47.9622 -25.289 47.5351C-26.4568 47.1165 -27.6883 47.006 -29.2306 47.3906C-32.0863 48.1026 -33.1927 50.0169 -34.6463 52.5318C-34.7363 52.6875 -34.8277 52.8456 -34.9208 53.0057C-34.9928 53.1296 -35.0653 53.2551 -35.1388 53.3817C-36.8383 56.3201 -39.0223 60.0954 -44.4301 61.4438C-49.8373 62.7917 -53.5359 60.4852 -56.4171 58.6887C-56.5421 58.6103 -56.6655 58.5335 -56.7879 58.4577L-56.7995 58.4503L-56.8106 58.4429C-58.1734 57.4949 -59.3147 56.7428 -60.5064 56.3159C-61.6743 55.8975 -62.9057 55.7868 -64.448 56.1713C-67.3037 56.8831 -68.4101 58.7978 -69.864 61.3125C-69.954 61.4682 -70.0451 61.6265 -70.1383 61.7865C-70.2104 61.9104 -70.2829 62.0354 -70.3565 62.1625C-72.0556 65.1004 -74.2398 68.8761 -79.6474 70.2241C-85.0549 71.5725 -88.7533 69.266 -91.6346 67.4689C-91.7595 67.3911 -91.8829 67.3143 -92.0053 67.2385L-92.0169 67.2311L-92.0281 67.2232C-93.3908 66.2757 -94.5322 65.5236 -95.7238 65.0967C-96.8917 64.6777 -98.1231 64.5676 -99.6654 64.9521C-102.521 65.6639 -103.628 67.5785 -105.081 70.0933C-105.171 70.249 -105.263 70.4068 -105.356 70.5673C-105.428 70.6907 -105.5 70.8162 -105.574 70.9433C-107.273 73.8812 -109.457 77.6569 -114.865 79.0049C-120.272 80.3533 -123.971 78.0467 -126.852 76.2497C-126.977 76.1718 -127.1 76.0951 -127.223 76.0193L-127.234 76.0119L-127.246 76.004C-128.608 75.0564 -129.75 74.3044 -130.941 73.8775C-132.109 73.4585 -133.341 73.3478 -134.883 73.7329C-135.709 73.9389 -136.507 73.8335 -137.159 73.4283C-137.81 73.0242 -138.267 72.3527 -138.476 71.5158C-138.685 70.678 -138.596 69.8703 -138.21 69.2077C-137.824 68.5441 -137.17 68.0775 -136.344 67.872C-130.937 66.5235 -127.239 68.8301 -124.357 70.6271C-124.232 70.705 -124.108 70.7818 -123.987 70.8575L-123.975 70.8649L-123.963 70.8729C-122.601 71.8204 -121.459 72.5725 -120.268 72.9993C-119.1 73.4183 -117.869 73.5284 -116.327 73.1439C-113.471 72.4321 -112.364 70.518 -110.911 68.0028C-110.821 67.8471 -110.729 67.6892 -110.636 67.5288C-110.564 67.4054 -110.492 67.2798 -110.418 67.1527C-108.718 64.2148 -106.535 60.4396 -101.127 59.0912C-95.7196 57.7427 -92.0212 60.0493 -89.1395 61.8463C-89.0145 61.9242 -88.891 62.001 -88.7692 62.0767L-88.7576 62.0841L-88.7459 62.0921C-87.3832 63.0396 -86.2418 63.7917 -85.0507 64.2191C-83.8828 64.6375 -82.6514 64.7482 -81.1086 64.3637C-78.2534 63.6513 -77.147 61.7372 -75.6931 59.222C-75.6031 59.0663 -75.512 58.9085 -75.4188 58.748C-75.3467 58.6246 -75.2742 58.499 -75.2006 58.3719C-73.501 55.4341 -71.3173 51.6587 -65.9092 50.3104C-60.5022 48.9623 -56.8037 51.2686 -53.922 53.0655C-53.797 53.1434 -53.6736 53.2207 -53.5518 53.2959L-53.5402 53.3033L-53.5285 53.3113C-52.166 54.2593 -51.0246 55.0109 -49.8331 55.4383C-48.6653 55.8567 -47.4338 55.9674 -45.8915 55.5829C-43.0357 54.8705 -41.9293 52.9564 -40.4757 50.4415C-40.3857 50.2858 -40.2943 50.1277 -40.2012 49.9675C-40.1292 49.8438 -40.0567 49.7184 -39.9832 49.5914C-38.2837 46.6534 -36.0997 42.878 -30.6919 41.5297C-25.2847 40.1816 -21.5863 42.4879 -18.7048 44.2849C-18.5798 44.3628 -18.4564 44.4398 -18.3344 44.5155L-18.3227 44.5228L-18.3113 44.5307C-16.9485 45.4784 -15.8072 46.2304 -14.6156 46.6575C-13.4478 47.0761 -12.2163 47.1866 -10.674 46.8021C-7.81824 46.0901 -6.71178 44.1757 -5.25829 41.6608C-5.16824 41.5051 -5.07689 41.347 -4.98372 41.1868C-4.09059 39.6509 -3.09433 38.3261 -1.60735 37.2151C-0.123978 36.1069 1.81429 35.2364 4.55835 34.5523C10.0634 33.1797 13.784 33.8119 16.883 35.7348L16.8948 35.7421ZM-110.178 67.7952C-110.277 67.9652 -110.375 68.1341 -110.471 68.301C-111.904 70.7849 -113.118 72.8902 -116.198 73.6582C-119.485 74.4776 -121.551 73.1958 -124.266 71.3077C-124.383 71.2351 -124.5 71.1615 -124.62 71.0879C-127.505 69.2898 -131.03 67.0929 -136.216 68.3857C-137.625 68.7369 -138.324 69.937 -137.962 71.3877C-137.601 72.8373 -136.421 73.5703 -135.011 73.2186C-131.724 72.3993 -129.658 73.681 -126.943 75.5691C-126.827 75.6417 -126.708 75.7153 -126.59 75.7889C-123.704 77.587 -120.179 79.784 -114.993 78.4911C-109.807 77.1978 -107.724 73.6005 -106.022 70.66C-105.952 70.5392 -105.882 70.4195 -105.813 70.3009C-105.715 70.1309 -105.617 69.9624 -105.521 69.7951C-104.088 67.3111 -102.873 65.2058 -99.7936 64.4378C-96.5066 63.6185 -94.4405 64.9002 -91.7256 66.7883C-91.6091 66.8609 -91.491 66.9345 -91.3724 67.0087C-88.4869 68.8062 -84.9617 71.0032 -79.7755 69.7103C-74.5894 68.4175 -72.5063 64.8197 -70.8041 61.8792C-70.7342 61.7584 -70.6648 61.6387 -70.5959 61.5201C-70.4974 61.3501 -70.4 61.1816 -70.3036 61.0143C-68.8704 58.5308 -67.6559 56.4255 -64.5761 55.6576C-61.2892 54.8377 -59.2231 56.1199 -56.5082 58.0081C-56.3917 58.0801 -56.2736 58.1537 -56.155 58.2279C-53.2695 60.026 -49.7442 62.2229 -44.5583 60.9295C-39.3717 59.6367 -37.289 56.0389 -35.5867 53.0984C-35.5168 52.9776 -35.4475 52.858 -35.3787 52.7396C-35.2798 52.5695 -35.1824 52.4008 -35.0861 52.2338C-33.6532 49.7499 -32.4387 47.6446 -29.3587 46.8767C-26.0718 46.0572 -24.0056 47.3391 -21.2909 49.2271C-21.1742 49.2996 -21.0564 49.373 -20.9375 49.447C-18.0522 51.2451 -14.5267 53.4421 -9.34082 52.149C-4.15421 50.8559 -2.07156 47.2583 -0.369247 44.3177C-0.299347 44.1969 -0.230072 44.0772 -0.161255 43.9589C-0.0623016 43.7888 0.0350189 43.6201 0.131363 43.4531C1.56429 40.9692 2.77881 38.8639 5.85876 38.096C9.14561 37.2765 11.2119 38.5583 13.9266 40.4464C14.0433 40.5189 14.1611 40.5923 14.28 40.6663C17.1652 42.4643 20.6907 44.6613 25.8767 43.3683C31.0632 42.0752 33.1459 38.4776 34.8481 35.537C34.9181 35.4162 34.9874 35.2965 35.0562 35.1782C35.1552 35.0081 35.2525 34.8394 35.3487 34.6724C36.7817 32.1885 37.9963 30.0832 41.0762 29.3152C42.4156 28.9813 43.7694 29.4956 44.8221 29.8955C45.2538 30.0595 45.6349 30.2042 45.9436 30.2633C46.1086 30.2949 46.2529 30.302 46.3732 30.2744C46.5625 30.231 46.6923 30.1017 46.7493 29.8469C46.7734 29.8963 46.7981 29.945 46.8235 29.9931C46.7156 30.1532 46.5948 30.3081 46.4746 30.4543C46.3937 30.5525 46.313 30.6468 46.2367 30.7362C46.2121 30.7648 46.1881 30.793 46.1646 30.8206C45.7049 31.3607 45.4626 31.693 46.4325 31.5633C46.6454 31.5349 46.9169 31.4841 47.2573 31.4084C47.3089 31.397 47.362 31.3849 47.4168 31.3723C47.5747 31.3359 47.7461 31.2946 47.9318 31.2484C47.7443 31.132 47.5767 30.9951 47.4259 30.8411C47.4221 30.837 47.4182 30.833 47.4143 30.829C47.3922 30.8062 47.3705 30.783 47.3492 30.7594C47.2699 30.6721 47.1955 30.5797 47.1254 30.483C47.1078 30.4586 47.0904 30.434 47.0733 30.4091C46.983 30.2775 46.9001 30.1384 46.8235 29.9931C46.9511 29.8037 47.0608 29.6069 47.1305 29.4082C47.2943 28.9421 47.2381 28.4661 46.6776 28.0529C46.6327 28.0198 46.5845 27.987 46.5329 27.9548C46.7681 28.8978 46.8286 29.4933 46.7493 29.8469C46.6802 29.7049 46.6164 29.5578 46.5568 29.4066C46.3887 28.9801 46.2541 28.5212 46.1297 28.0553C46.0803 27.8703 46.0325 27.6843 45.9849 27.4989C45.9321 27.2935 45.8795 27.0887 45.8251 26.8868C45.2762 24.85 44.5407 23.0943 41.5762 23.8335C36.1765 25.1798 32.4361 29.6724 30.6916 32.6723C30.5927 32.8424 30.4953 33.0111 30.399 33.1781C28.9661 35.6621 27.7516 37.7673 24.6716 38.5353C21.3848 39.3548 19.3185 38.0729 16.6038 36.1848C13.6528 34.3538 10.0861 33.7199 4.68651 35.0662C-0.713074 36.4124 -2.78136 38.4531 -4.52583 41.453C-4.62479 41.6231 -4.72212 41.7919 -4.81847 41.9589C-6.25136 44.4427 -7.46587 46.548 -10.5458 47.3159C-13.8327 48.1355 -15.899 46.8536 -18.6136 44.9655C-18.7304 44.893 -18.8482 44.8197 -18.9671 44.7456C-21.8523 42.9476 -25.3778 40.7506 -30.5638 42.0436C-35.7503 43.3368 -37.833 46.9344 -39.5353 49.8749C-39.6052 49.9957 -39.6745 50.1154 -39.7433 50.2337C-39.8422 50.4038 -39.9396 50.5726 -40.0359 50.7395C-41.4688 53.2234 -42.6834 55.3287 -45.7633 56.0966C-49.0502 56.916 -51.1164 55.6343 -53.8309 53.7461C-53.948 53.6736 -54.0655 53.6005 -54.1847 53.5263C-57.0696 51.7283 -60.5954 49.5313 -65.781 50.8243C-70.9677 52.1175 -73.0503 55.7153 -74.753 58.6558C-74.8229 58.7766 -74.8918 58.8963 -74.9606 59.0144C-75.0597 59.1844 -75.1571 59.3533 -75.2535 59.5202C-76.6862 62.0042 -77.9006 64.1095 -80.981 64.8774C-84.2673 65.6968 -86.334 64.415 -89.0484 62.5269C-89.1654 62.4543 -89.283 62.3813 -89.4021 62.3071C-92.2871 60.509 -95.8128 58.3121 -100.998 59.6049C-106.185 60.8983 -108.268 64.4956 -109.97 67.4366C-110.04 67.5574 -110.109 67.6765 -110.178 67.7952Z" fill="url(#paint1_linear_3013_20)"/>
</g>
<path d="M12.9071 26.6266L14.722 26.3438L15.0929 24.5448C15.917 20.5478 17.8226 17.3531 20.83 14.8538C23.8341 12.3571 27.2592 11.1223 31.213 11.1223C35.7565 11.1223 39.5094 12.7401 42.6349 16.0481C45.7869 19.3843 47.3492 23.3321 47.3492 28.0353V29.7301V32.4529L50.0709 32.3772C52.7742 32.3021 54.9468 33.147 56.7687 34.9147C58.5742 36.6656 59.4953 38.8472 59.4953 41.6645C59.4953 44.1913 58.6113 46.3244 56.7401 48.1955C54.8689 50.0666 52.736 50.9507 50.2092 50.9507H14.9003C11.4504 50.9507 8.60767 49.7755 6.21548 47.3834C3.82334 44.9912 2.64813 42.1484 2.64813 38.6986C2.64813 35.6476 3.6064 33.0308 5.55111 30.736C7.4902 28.4479 9.90543 27.0944 12.9071 26.6266Z" stroke="white" stroke-width="5.29633"/>
<path d="M12.9071 26.6266L14.722 26.3438L15.0929 24.5448C15.917 20.5478 17.8226 17.3531 20.83 14.8538C23.8341 12.3571 27.2592 11.1223 31.213 11.1223C35.7565 11.1223 39.5094 12.7401 42.6349 16.0481C45.7869 19.3843 47.3492 23.3321 47.3492 28.0353V29.7301V32.4529L50.0709 32.3772C52.7742 32.3021 54.9468 33.147 56.7687 34.9147C58.5742 36.6656 59.4953 38.8472 59.4953 41.6645C59.4953 44.1913 58.6113 46.3244 56.7401 48.1955C54.8689 50.0666 52.736 50.9507 50.2092 50.9507H14.9003C11.4504 50.9507 8.60767 49.7755 6.21548 47.3834C3.82334 44.9912 2.64813 42.1484 2.64813 38.6986C2.64813 35.6476 3.6064 33.0308 5.55111 30.736C7.4902 28.4479 9.90543 27.0944 12.9071 26.6266Z" stroke="url(#paint2_linear_3013_20)" stroke-width="5.29633"/>
<path d="M177.437 38.9418C176.614 38.9418 175.858 38.7416 175.168 38.3412C174.501 37.9408 173.956 37.407 173.533 36.7396C173.133 36.05 172.933 35.2826 172.933 34.4373C172.933 33.592 173.133 32.8246 173.533 32.135C173.956 31.4454 174.501 30.9004 175.168 30.5C175.858 30.0996 176.614 29.8994 177.437 29.8994C178.305 29.8994 179.072 30.0996 179.739 30.5C180.429 30.9004 180.974 31.4454 181.374 32.135C181.775 32.8246 181.975 33.592 181.975 34.4373C181.975 35.2826 181.775 36.05 181.374 36.7396C180.974 37.407 180.429 37.9408 179.739 38.3412C179.072 38.7416 178.305 38.9418 177.437 38.9418Z" fill="white"/>
<defs>
 <linearGradient id="paint0_linear_3013_20" x1="4.23718" y1="36.8095" x2="46.343" y2="25.1576" gradientUnits="userSpaceOnUse">
    <stop stop-color="#E1C06B"/>
    <stop offset="1" stop-color="#EAC971"/>
 </linearGradient>
 <linearGradient id="paint1_linear_3013_20" x1="4.23708" y1="36.8095" x2="46.3429" y2="25.1576" gradientUnits="userSpaceOnUse">
    <stop stop-color="#E1C06B"/>
    <stop offset="1" stop-color="#EAC971"/>
 </linearGradient>
 <linearGradient id="paint2_linear_3013_20" x1="31.0718" y1="8.47415" x2="31.0718" y2="53.5989" gradientUnits="userSpaceOnUse">
    <stop stop-color="#FAD77B"/>
    <stop offset="1" stop-color="#D2B361"/>
 </linearGradient>
</defs>
</svg>