<svg width="804" height="161" viewBox="0 0 804 161" fill="none" xmlns="http://www.w3.org/2000/svg">
<path d="M137.645 80.207L80.2109 22.7734L22.7773 80.0889L59.8846 100.415L80.0928 137.522L100.419 100.415L137.645 80.207Z" fill="#FFF6ED"/>
<path d="M137.645 80.207L80.2109 22.7734L22.7773 80.0889L59.8846 100.415L80.0928 137.522L100.419 100.415L137.645 80.207Z" fill="#FFF6ED"/>
<path d="M192.505 118.802C187.846 118.802 183.624 118.365 179.839 117.492C176.054 116.618 172.778 115.308 170.012 113.561C167.246 111.741 165.062 109.448 163.461 106.682C161.859 103.916 160.913 100.713 160.622 97.0733L176.017 91.9414C176.236 94.9987 177.109 97.5464 178.638 99.5847C180.167 101.623 182.205 103.152 184.753 104.171C187.373 105.117 190.285 105.59 193.488 105.59C196.545 105.59 199.093 105.226 201.131 104.498C203.242 103.697 204.807 102.715 205.826 101.55C206.918 100.313 207.464 99.0023 207.464 97.6192C207.464 96.0178 206.773 94.7075 205.39 93.6884C204.007 92.5965 202.114 91.6866 199.712 90.9587C197.31 90.1579 194.507 89.3936 191.304 88.6657C187.664 87.7921 184.098 86.8458 180.603 85.8267C177.109 84.8076 173.943 83.4973 171.104 81.8959C168.265 80.2216 166.008 78.1106 164.334 75.5629C162.733 72.9423 161.932 69.6666 161.932 65.7358C161.932 61.2954 163.06 57.4373 165.317 54.1616C167.573 50.8859 170.886 48.3382 175.253 46.5183C179.621 44.6257 185.007 43.6794 191.413 43.6794C197.746 43.6794 203.133 44.5893 207.573 46.4091C212.014 48.229 215.435 50.7767 217.837 54.0524C220.239 57.2553 221.55 61.0042 221.768 65.299L206.045 69.7758C206.045 67.6648 205.681 65.8086 204.953 64.2071C204.298 62.6057 203.351 61.2954 202.114 60.2763C200.876 59.1844 199.348 58.3836 197.528 57.8741C195.708 57.2917 193.633 57.0006 191.304 57.0006C188.538 57.0006 186.172 57.3281 184.207 57.9833C182.314 58.6384 180.895 59.5119 179.948 60.6038C179.002 61.6229 178.529 62.824 178.529 64.2071C178.529 65.9541 179.257 67.41 180.713 68.5747C182.241 69.6666 184.28 70.6129 186.827 71.4136C189.448 72.1416 192.323 72.8695 195.453 73.5974C198.583 74.2526 201.823 75.0897 205.171 76.1088C208.52 77.0551 211.65 78.329 214.562 79.9305C217.473 81.5319 219.803 83.7157 221.55 86.4819C223.37 89.1752 224.279 92.5965 224.279 96.7457C224.279 101.186 223.078 105.081 220.676 108.429C218.347 111.705 214.816 114.253 210.085 116.072C205.353 117.892 199.493 118.802 192.505 118.802ZM261.535 118.802C255.712 118.802 250.544 117.674 246.03 115.417C241.59 113.161 238.096 109.776 235.548 105.263C233 100.749 231.727 95.1079 231.727 88.3381C231.727 81.5683 233 75.9632 235.548 71.5228C238.096 67.0097 241.626 63.6612 246.14 61.4774C250.653 59.2208 255.821 58.0925 261.645 58.0925C267.468 58.0925 272.636 59.2208 277.15 61.4774C281.663 63.734 285.193 67.1188 287.741 71.632C290.289 76.0724 291.563 81.6775 291.563 88.4473C291.563 95.3626 290.252 101.077 287.632 105.59C285.011 110.103 281.408 113.452 276.822 115.636C272.309 117.747 267.213 118.802 261.535 118.802ZM262.081 106.027C264.702 106.027 266.886 105.445 268.633 104.28C270.38 103.042 271.69 101.186 272.564 98.7111C273.437 96.2362 273.874 93.1788 273.874 89.5392C273.874 85.6811 273.401 82.4418 272.454 79.8213C271.508 77.1279 270.089 75.0897 268.196 73.7066C266.376 72.2508 264.01 71.5228 261.099 71.5228C258.624 71.5228 256.476 72.1416 254.656 73.3791C252.909 74.5438 251.599 76.3636 250.726 78.8386C249.852 81.3135 249.415 84.4073 249.415 88.1197C249.415 94.0888 250.507 98.5656 252.691 101.55C254.948 104.535 258.078 106.027 262.081 106.027ZM321.623 118.802C314.781 118.802 309.612 116.509 306.118 111.923C302.697 107.264 300.986 100.203 300.986 90.7403V59.6211H318.675V88.4473C318.675 93.834 319.476 97.874 321.077 100.567C322.679 103.188 325.117 104.498 328.393 104.498C330.358 104.498 332.033 104.025 333.416 103.079C334.872 102.06 336.073 100.677 337.019 98.9295C338.038 97.1097 338.766 95.0351 339.203 92.7057C339.712 90.3763 339.967 87.8285 339.967 85.0624V59.6211H357.547V93.9068V117.273H343.57L343.243 99.4755H341.059C339.967 103.989 338.584 107.701 336.91 110.613C335.308 113.452 333.27 115.526 330.795 116.837C328.32 118.147 325.263 118.802 321.623 118.802ZM371.063 117.273V38.6567H388.315V117.273H371.063ZM439.719 112.102C445.082 112.102 449.439 111.001 452.791 108.798C456.238 106.595 457.962 103.531 457.962 99.6045C457.962 96.4442 456.909 93.9064 454.802 91.9911C452.695 90.0757 450.061 88.5435 446.901 87.3943C443.837 86.1493 440.724 85.0959 437.564 84.234C433.637 82.989 429.855 81.5525 426.216 79.9245C422.576 78.2007 419.608 75.8544 417.309 72.8856C415.011 69.9169 413.862 65.9904 413.862 61.1063C413.862 54.2111 416.352 48.7046 421.331 44.5866C426.407 40.3729 433.446 38.266 442.448 38.266C450.109 38.266 456.143 39.894 460.548 43.1501C465.049 46.3104 467.299 50.6678 467.299 56.2222C467.299 59.191 466.629 61.5852 465.288 63.4047C463.948 65.1285 462.032 65.9904 459.542 65.9904C457.34 65.9904 455.52 65.3201 454.084 63.9793C452.647 62.6386 451.929 60.9148 451.929 58.8079C451.929 56.9884 452.408 55.3603 453.365 53.9238C454.323 52.3916 455.568 51.2903 457.1 50.6199C455.664 48.6088 453.796 47.1723 451.498 46.3104C449.295 45.3527 446.422 44.8739 442.879 44.8739C437.133 44.8739 432.823 45.9273 429.95 48.0342C427.077 50.0453 425.641 53.0619 425.641 57.0841C425.641 59.9571 426.311 62.2555 427.652 63.9793C429.089 65.6074 431.148 66.996 433.829 68.1452C436.51 69.2944 439.814 70.4915 443.741 71.7364C446.997 72.6941 450.205 73.7954 453.365 75.0404C456.526 76.1896 459.399 77.6261 461.984 79.3499C464.57 81.0737 466.629 83.2284 468.161 85.8141C469.694 88.3998 470.46 91.608 470.46 95.4387C470.46 100.323 469.119 104.536 466.438 108.08C463.756 111.527 460.069 114.161 455.376 115.981C450.684 117.8 445.273 118.71 439.144 118.71C430.717 118.71 423.917 116.986 418.746 113.539C413.574 110.091 410.989 105.446 410.989 99.6045C410.989 96.54 411.659 94.1458 413 92.422C414.436 90.6024 416.447 89.6927 419.033 89.6927C421.331 89.6927 423.247 90.363 424.779 91.7038C426.407 93.0445 427.221 94.8162 427.221 97.0188C427.221 98.8384 426.694 100.562 425.641 102.19C424.683 103.818 423.486 105.015 422.05 105.781C423.295 107.601 425.497 109.133 428.658 110.378C431.914 111.527 435.601 112.102 439.719 112.102ZM473.587 63.7704V59.8395L484.179 58.3109L485.598 44.5529L494.77 43.2426V58.3109H508.746V63.7704H494.77V102.751C494.77 105.226 494.806 106.937 494.879 107.883C494.952 108.757 495.098 109.485 495.316 110.067C495.534 110.576 495.935 110.94 496.517 111.159C497.099 111.304 498.046 111.377 499.356 111.377H506.999V114.544C503.505 115.854 500.411 116.8 497.718 117.383C495.098 118.038 492.986 118.365 491.385 118.365C488.109 118.365 485.998 117.019 485.052 114.325C484.761 113.452 484.542 112.323 484.397 110.94C484.251 109.557 484.179 107.519 484.179 104.826V63.7704H473.587ZM530.892 58.3109V89.2116C530.892 93.8704 531.001 97.4009 531.22 99.803C531.511 102.132 531.984 103.952 532.639 105.263C533.44 107.01 534.641 108.356 536.243 109.303C537.844 110.176 539.7 110.613 541.811 110.613C543.777 110.613 545.669 110.249 547.489 109.521C549.309 108.793 550.91 107.81 552.293 106.573C555.278 103.879 556.916 99.6939 557.207 94.016V64.8622L547.707 62.7876V58.3109H567.798V110.722L576.206 112.797V117.273L559.282 118.365L558.081 106.354H557.644C555.533 110.067 552.657 113.015 549.018 115.199C545.378 117.31 541.484 118.365 537.334 118.365C534.568 118.365 532.021 117.856 529.691 116.837C527.435 115.745 525.651 114.289 524.341 112.469C522.958 110.431 521.939 107.556 521.283 103.843C520.628 100.131 520.301 95.1807 520.301 88.9932V64.8622L512.985 62.7876V58.3109H530.892ZM578.479 88.3381C578.479 83.6065 579.097 79.0933 580.335 74.7985C581.572 70.5037 583.428 67.0097 585.903 64.3163C588.014 61.9869 590.526 60.2399 593.438 59.0752C596.349 57.8377 599.698 57.219 603.483 57.219C606.686 57.219 609.598 57.8377 612.218 59.0752C614.912 60.3127 617.314 62.5329 619.425 65.7358V38.6567L611.017 36.582V32.1053H630.016V110.722L638.424 112.797V117.273L621.499 118.365L620.626 109.412C618.369 112.76 615.822 115.09 612.983 116.4C610.144 117.71 606.977 118.365 603.483 118.365C599.771 118.365 596.422 117.819 593.438 116.727C590.453 115.636 587.978 113.889 586.013 111.486C583.683 108.647 581.827 105.263 580.444 101.332C579.134 97.3281 578.479 92.9969 578.479 88.3381ZM619.425 88.2289C619.425 83.7885 619.097 79.9305 618.442 76.6548C617.787 73.3791 616.841 70.7221 615.603 68.6839C614.438 66.7913 613.019 65.3718 611.345 64.4255C609.67 63.4064 607.45 62.8968 604.684 62.8968C602.209 62.8968 600.025 63.3336 598.133 64.2071C596.313 65.0806 594.821 66.3545 593.656 68.0288C592.346 69.8486 591.399 72.4691 590.817 75.8904C590.235 79.2389 589.943 83.097 589.943 87.4646C589.943 91.8322 590.271 95.6538 590.926 98.9295C591.581 102.132 592.528 104.789 593.765 106.9C595.003 108.72 596.458 110.14 598.133 111.159C599.88 112.178 602.1 112.687 604.793 112.687C607.341 112.687 609.525 112.287 611.345 111.486C613.237 110.613 614.657 109.339 615.603 107.665C616.841 105.627 617.787 103.006 618.442 99.803C619.097 96.5273 619.425 92.6693 619.425 88.2289ZM651.321 64.8622L642.913 62.7876V58.3109H661.912V110.722L670.32 112.797V117.273H642.913V112.797L651.321 110.722V64.8622ZM649.792 40.7313C649.792 38.6203 650.411 36.946 651.649 35.7085C652.886 34.471 654.524 33.8523 656.562 33.8523C658.673 33.8523 660.347 34.471 661.585 35.7085C662.822 36.946 663.441 38.6203 663.441 40.7313C663.441 42.7695 662.822 44.4073 661.585 45.6448C660.347 46.8823 658.673 47.501 656.562 47.501C654.451 47.501 652.777 46.9187 651.539 45.754C650.375 44.5165 649.792 42.8423 649.792 40.7313ZM728.248 87.2462C728.248 91.9778 727.52 96.4909 726.064 100.786C724.681 105.008 722.716 108.502 720.168 111.268C717.984 113.67 715.291 115.454 712.088 116.618C708.885 117.783 705.245 118.365 701.169 118.365C697.165 118.365 693.598 117.819 690.468 116.727C687.338 115.563 684.681 113.816 682.497 111.486C680.022 108.793 678.093 105.481 676.71 101.55C675.4 97.5464 674.745 93.2152 674.745 88.5565C674.745 83.8249 675.436 79.3117 676.819 75.0169C678.203 70.6493 680.204 67.0824 682.825 64.3163C685.154 61.8413 687.848 60.0579 690.905 58.966C694.035 57.8013 697.602 57.219 701.606 57.219C705.609 57.219 709.212 57.8013 712.415 58.966C715.618 60.0579 718.312 61.7685 720.495 64.0979C723.043 66.7913 724.972 70.1762 726.283 74.2526C727.593 78.2562 728.248 82.5874 728.248 87.2462ZM686.428 87.3554C686.428 91.7958 686.756 95.6538 687.411 98.9295C688.139 102.132 689.122 104.789 690.359 106.9C691.596 108.72 693.052 110.14 694.727 111.159C696.474 112.178 698.73 112.687 701.496 112.687C706.519 112.687 710.268 110.977 712.743 107.556C714.053 105.663 715 103.042 715.582 99.6939C716.237 96.3454 716.565 92.4873 716.565 88.1197C716.565 83.7521 716.201 79.9305 715.473 76.6548C714.818 73.3791 713.871 70.7221 712.634 68.6839C711.469 66.7913 709.977 65.3718 708.157 64.4255C706.41 63.4064 704.153 62.8968 701.387 62.8968C696.292 62.8968 692.616 64.5711 690.359 67.9196C687.738 71.996 686.428 78.4746 686.428 87.3554ZM756.641 113.343C760.717 113.343 764.029 112.505 766.577 110.831C769.198 109.157 770.508 106.828 770.508 103.843C770.508 101.441 769.707 99.5119 768.106 98.056C766.504 96.6001 764.502 95.4354 762.1 94.5619C759.771 93.6156 757.405 92.8149 755.003 92.1597C752.018 91.2134 749.143 90.1215 746.377 88.884C743.611 87.5738 741.354 85.7903 739.607 83.5337C737.86 81.2771 736.987 78.2926 736.987 74.5802C736.987 69.339 738.879 65.1534 742.664 62.0233C746.522 58.8204 751.873 57.219 758.715 57.219C764.539 57.219 769.125 58.4564 772.473 60.9314C775.895 63.3336 777.605 66.6457 777.605 70.8677C777.605 73.1243 777.096 74.9441 776.077 76.3272C775.057 77.6375 773.602 78.2926 771.709 78.2926C770.035 78.2926 768.652 77.7831 767.56 76.764C766.468 75.7448 765.922 74.4346 765.922 72.8331C765.922 71.45 766.286 70.2126 767.014 69.1207C767.742 67.956 768.688 67.1188 769.853 66.6093C768.761 65.0806 767.341 63.9887 765.594 63.3336C763.92 62.6057 761.736 62.2417 759.043 62.2417C754.675 62.2417 751.4 63.0424 749.216 64.6439C747.032 66.1725 745.94 68.4655 745.94 71.5228C745.94 73.7066 746.45 75.4537 747.469 76.764C748.561 78.0014 750.126 79.0569 752.164 79.9305C754.202 80.804 756.714 81.7139 759.698 82.6602C762.173 83.3881 764.612 84.2253 767.014 85.1716C769.416 86.0451 771.6 87.137 773.565 88.4473C775.531 89.7576 777.096 91.3954 778.26 93.3608C779.425 95.3263 780.007 97.7648 780.007 100.677C780.007 104.389 778.988 107.592 776.95 110.285C774.912 112.906 772.109 114.908 768.542 116.291C764.976 117.674 760.863 118.365 756.204 118.365C749.798 118.365 744.63 117.055 740.699 114.434C736.768 111.814 734.803 108.283 734.803 103.843C734.803 101.514 735.312 99.6939 736.331 98.3836C737.423 97.0005 738.952 96.309 740.917 96.309C742.664 96.309 744.12 96.8185 745.285 97.8376C746.522 98.8567 747.141 100.203 747.141 101.878C747.141 103.261 746.741 104.571 745.94 105.808C745.212 107.046 744.302 107.956 743.21 108.538C744.157 109.921 745.831 111.086 748.233 112.032C750.708 112.906 753.511 113.343 756.641 113.343Z" fill="#FFF6ED"/>
</svg>
